<?xml version="1.0" encoding="utf-8"?>
<!-- Generator: Adobe Illustrator 15.1.0, SVG Export Plug-In . SVG Version: 6.00 Build 0)  -->
<!DOCTYPE svg PUBLIC "-//W3C//DTD SVG 1.1//EN" "http://www.w3.org/Graphics/SVG/1.1/DTD/svg11.dtd">
<svg version="1.1" id="Layer_1" xmlns="http://www.w3.org/2000/svg" xmlns:xlink="http://www.w3.org/1999/xlink" x="0px" y="0px"
	 width="20.5px" height="21.75px" viewBox="15.938 20.062 20.5 21.75" enable-background="new 15.938 20.062 20.5 21.75"
	 xml:space="preserve">
<path d="M35.757,39.722c0.163,0.162,0.163,0.428,0,0.592l-0.593,0.593c-0.164,0.162-0.429,0.162-0.593,0l-4.147-4.148
	c-0.045-0.046-0.075-0.099-0.095-0.155c-0.851,0.622-1.896,0.993-3.03,0.993c-2.842,0-5.147-2.305-5.147-5.147
	c0-2.844,2.303-5.148,5.147-5.148s5.148,2.305,5.148,5.148c0,1.135-0.371,2.179-0.993,3.029c0.057,0.021,0.109,0.05,0.155,0.096
	L35.757,39.722z M27.299,29.018c-1.895,0-3.432,1.536-3.432,3.432c0,1.895,1.537,3.432,3.432,3.432c1.896,0,3.433-1.537,3.433-3.432
	C30.731,30.554,29.195,29.018,27.299,29.018z"/>
<path d="M16.969,25.946h12.5V24.62h-12.5V25.946z M16.969,21.195v1.326h12.5v-1.326H16.969z M16.969,29.37h4.667
	c0.27-0.484,0.603-0.929,0.985-1.325h-5.652V29.37z M16.969,31.47v1.326h3.882c-0.006-0.111-0.017-0.221-0.017-0.333
	c0-0.339,0.034-0.669,0.085-0.993H16.969z"/>
</svg>
